<?xml version="1.0" encoding="utf-8"?>
<!-- Generator: Adobe Illustrator 22.1.0, SVG Export Plug-In . SVG Version: 6.00 Build 0)  -->
<svg version="1.1" id="Layer_1" xmlns="http://www.w3.org/2000/svg" xmlns:xlink="http://www.w3.org/1999/xlink" x="0px" y="0px"
	 viewBox="0 0 256 256" style="enable-background:new 0 0 256 256;" xml:space="preserve">
<style type="text/css">
	.st0{fill:#231F20;}
	.st1{fill:#FFEFE4;}
	.st2{fill:#69EBFC;}
	.st3{fill:#5FD4E3;}
	.st4{fill:#A1F1FC;}
	.st5{fill:#D476E2;}
	.st6{fill:#B665C2;}
	.st7{fill:#EA82FA;}
	.st8{fill:#FFF7F2;}
	.st9{fill:#FF8354;}
	.st10{fill:#FFA172;}
	.st11{fill:#6770E6;}
	.st12{fill:#5861C7;}
	.st13{fill:#E0734A;}
	.st14{fill:#EDD4C2;}
	.st15{fill:#CC6944;}
	.st16{fill:#858EFF;}
	.st17{fill:#C76642;}
	.st18{fill:#FFFFFF;}
	.st19{fill:#FFDEC7;}
	.st20{fill:#4E56B0;}
	.st21{fill:#94529E;}
	.st22{fill:#41B6C5;}
	.st23{fill:#9847A4;}
	.st24{fill:#C2552C;}
	.st25{fill:#CFB6A4;}
</style>
<g>
	<path class="st1" d="M205,0H40H20c5.52,0,10.52,2.24,14.14,5.86S40,14.48,40,20v236h185V20C225,8.954,216.046,0,205,0z"/>
	<rect x="40" y="250" class="st14" width="185" height="6"/>
	<path class="st8" d="M205,0H40H20c5.52,0,10.52,2.24,14.14,5.86c0.045,0.045,0.083,0.095,0.127,0.14H40h165
		c11.046,0,20,8.954,20,20v-6C225,8.954,216.046,0,205,0z"/>
	<path class="st9" d="M144,56H70c-4.418,0-8-3.582-8-8v0c0-4.418,3.582-8,8-8h74c4.418,0,8,3.582,8,8v0
		C152,52.418,148.418,56,144,56z"/>
	<path class="st14" d="M188,84H66c-2.209,0-4-1.791-4-4v0c0-2.209,1.791-4,4-4h122c2.209,0,4,1.791,4,4v0
		C192,82.209,190.209,84,188,84z"/>
	<path class="st14" d="M188,111.2H66c-2.209,0-4-1.791-4-4v0c0-2.209,1.791-4,4-4h122c2.209,0,4,1.791,4,4v0
		C192,109.409,190.209,111.2,188,111.2z"/>
	<path class="st14" d="M188,138.4H66c-2.209,0-4-1.791-4-4v0c0-2.209,1.791-4,4-4h122c2.209,0,4,1.791,4,4v0
		C192,136.609,190.209,138.4,188,138.4z"/>
	<path class="st14" d="M188,165.6H66c-2.209,0-4-1.791-4-4v0c0-2.209,1.791-4,4-4h122c2.209,0,4,1.791,4,4v0
		C192,163.809,190.209,165.6,188,165.6z"/>
	<path class="st14" d="M188,192.8H66c-2.209,0-4-1.791-4-4l0,0c0-2.209,1.791-4,4-4h122c2.209,0,4,1.791,4,4l0,0
		C192,191.009,190.209,192.8,188,192.8z"/>
	<path class="st14" d="M147,220H66c-2.209,0-4-1.791-4-4l0,0c0-2.209,1.791-4,4-4h81c2.209,0,4,1.791,4,4l0,0
		C151,218.209,149.209,220,147,220z"/>
	<path class="st14" d="M40,20v60H0V20C0,8.95,8.95,0,20,0c5.52,0,10.52,2.24,14.14,5.86S40,14.48,40,20z"/>
	<rect x="163.411" y="150.575" transform="matrix(0.866 0.5 -0.5 0.866 111.0203 -63.1828)" class="st5" width="20" height="50"/>
	<path class="st5" d="M169.571,202.226l-17.32-10l-5.625,24.567c-0.265,1.159,0.256,2.355,1.286,2.95v0
		c1.03,0.594,2.326,0.448,3.197-0.361L169.571,202.226z"/>
	<rect x="202.161" y="55.958" transform="matrix(0.866 0.5 -0.5 0.866 82.6534 -91.5498)" class="st2" width="20" height="105"/>
	<rect x="242.803" y="72.92" transform="matrix(-0.866 -0.5 0.5 -0.866 418.8488 264.0707)" class="st2" width="4" height="6"/>
	<path class="st2" d="M223.999,123.954L223.999,123.954c1.913,1.105,4.36,0.449,5.464-1.464l26-45.033
		c1.105-1.913,0.449-4.36-1.464-5.464v0c-1.913-1.105-4.36-0.449-5.464,1.464l-26,45.033
		C221.431,120.403,222.086,122.849,223.999,123.954z"/>
	<path class="st5" d="M250.911,41.341L250.911,41.341c-4.783-2.761-10.899-1.123-13.66,3.66l-7.5,12.99l17.32,10l7.5-12.99
		C257.333,50.219,255.694,44.103,250.911,41.341z"/>
</g>
</svg>
